<svg 
 xmlns="http://www.w3.org/2000/svg"
 xmlns:xlink="http://www.w3.org/1999/xlink"
 width="98px" height="98px">
<path fill-rule="evenodd"  fill="rgb(0, 0, 0)"
 d="M49.000,97.998 C22.066,97.998 0.231,76.164 0.231,49.231 C0.231,22.296 22.066,0.462 49.000,0.462 C75.934,0.462 97.769,22.296 97.769,49.231 C97.769,76.164 75.934,97.998 49.000,97.998 ZM49.000,1.763 C22.826,1.763 1.532,23.057 1.532,49.231 C1.532,75.405 22.826,96.698 49.000,96.698 C75.174,96.698 96.468,75.405 96.468,49.231 C96.468,23.057 75.174,1.763 49.000,1.763 ZM24.962,24.893 L31.240,24.893 L31.240,21.005 L33.000,21.005 L33.000,24.893 L40.046,24.893 L40.046,21.005 L41.806,21.005 L41.806,24.893 L49.155,24.893 L49.155,21.005 L50.915,21.005 L50.915,24.893 L57.991,24.893 L57.991,21.005 L59.755,21.005 L59.755,24.893 L66.096,24.893 L66.096,21.005 L67.860,21.005 L67.860,24.893 L73.038,24.893 L73.038,73.629 L24.962,73.629 L24.962,24.893 ZM26.561,72.029 L71.438,72.029 L71.438,38.331 L26.561,38.331 L26.561,72.029 ZM26.561,36.735 L71.438,36.735 L71.438,26.493 L67.860,26.493 L67.860,30.546 L66.096,30.546 L66.096,26.493 L59.755,26.493 L59.755,30.546 L57.991,30.546 L57.991,26.493 L50.915,26.493 L50.915,30.546 L49.151,30.546 L49.151,26.493 L41.806,26.493 L41.806,30.546 L40.046,30.546 L40.046,26.493 L33.000,26.493 L33.000,30.546 L31.236,30.546 L31.236,26.493 L26.561,26.493 L26.561,36.735 ZM49.416,63.739 L46.829,63.739 L46.829,62.232 L49.416,62.232 L49.416,48.073 L49.381,48.073 L47.379,49.153 L47.078,47.968 L49.593,46.621 L50.922,46.621 L50.922,62.232 L53.509,62.232 L53.509,63.739 L50.922,63.739 L49.416,63.739 Z"/>
</svg>