<svg 
 xmlns="http://www.w3.org/2000/svg"
 xmlns:xlink="http://www.w3.org/1999/xlink"
 width="98px" height="98px">
<path fill-rule="evenodd"  fill="rgb(0, 0, 0)"
 d="M49.000,97.998 C22.066,97.998 0.231,76.164 0.231,49.231 C0.231,22.296 22.066,0.462 49.000,0.462 C75.934,0.462 97.769,22.296 97.769,49.231 C97.769,76.164 75.934,97.998 49.000,97.998 ZM49.000,1.763 C22.826,1.763 1.532,23.057 1.532,49.231 C1.532,75.405 22.826,96.698 49.000,96.698 C75.174,96.698 96.468,75.405 96.468,49.231 C96.468,23.057 75.174,1.763 49.000,1.763 ZM63.474,39.403 C62.151,39.403 61.075,38.327 61.075,37.004 C61.075,35.681 62.151,34.605 63.474,34.605 C64.798,34.605 65.873,35.681 65.873,37.004 C65.873,38.327 64.798,39.403 63.474,39.403 ZM63.474,36.142 C62.998,36.142 62.611,36.528 62.611,37.004 C62.611,37.479 62.998,37.870 63.474,37.870 C63.950,37.870 64.336,37.479 64.336,37.004 C64.336,36.528 63.950,36.142 63.474,36.142 ZM70.503,53.918 C70.357,54.050 70.173,54.117 69.989,54.117 C69.791,54.117 69.592,54.042 69.441,53.888 L68.043,52.471 L60.820,60.133 L64.816,64.130 C65.116,64.429 65.116,64.917 64.816,65.216 L62.124,67.908 C61.974,68.057 61.779,68.132 61.581,68.132 C61.386,68.132 61.187,68.057 61.038,67.908 L60.722,67.589 L58.574,69.741 C58.425,69.890 58.226,69.966 58.031,69.966 C57.836,69.966 57.638,69.890 57.487,69.741 L57.172,69.423 L55.020,71.569 C54.871,71.720 54.676,71.796 54.481,71.796 C54.283,71.796 54.087,71.720 53.937,71.569 L53.618,71.255 L51.471,73.404 C51.321,73.553 51.125,73.629 50.927,73.629 C50.732,73.629 50.537,73.553 50.387,73.407 L48.974,72.008 L47.579,73.404 C47.430,73.553 47.235,73.629 47.036,73.629 C46.841,73.629 46.645,73.553 46.496,73.404 L43.805,70.712 L41.113,68.024 L38.421,65.362 L38.421,65.359 L38.417,65.359 L35.726,62.667 C35.430,62.367 35.426,61.888 35.723,61.584 L37.042,60.246 L29.863,53.165 L28.555,54.488 C28.409,54.638 28.210,54.712 28.011,54.712 C27.827,54.712 27.644,54.649 27.497,54.518 L20.289,48.048 C19.975,47.767 19.948,47.279 20.229,46.964 C20.514,46.649 21.001,46.623 21.316,46.903 L23.723,49.063 L37.394,35.651 L28.056,26.819 C27.749,26.527 27.737,26.039 28.026,25.732 C28.319,25.424 28.806,25.414 29.113,25.703 L42.950,38.792 C43.100,38.931 43.186,39.130 43.190,39.336 C43.194,39.541 43.111,39.740 42.968,39.887 L41.638,41.232 L45.585,45.131 L47.707,43.028 C47.872,42.863 48.097,42.780 48.329,42.811 L53.551,43.366 L56.258,40.532 L55.032,39.287 C54.885,39.140 54.806,38.942 54.810,38.736 C54.814,38.530 54.901,38.335 55.050,38.192 L68.887,25.102 C69.195,24.814 69.677,24.824 69.970,25.132 C70.263,25.440 70.248,25.927 69.940,26.219 L56.674,38.766 L70.023,52.287 L74.034,48.685 L65.929,40.648 C65.626,40.348 65.626,39.864 65.925,39.560 C66.222,39.260 66.709,39.260 67.009,39.557 L75.177,47.657 L76.684,46.304 C76.999,46.023 77.486,46.046 77.767,46.364 C78.053,46.679 78.027,47.163 77.712,47.452 L70.503,53.918 ZM47.036,71.772 L47.880,70.932 L46.264,69.336 L45.431,70.168 L47.036,71.772 ZM44.344,69.081 L45.169,68.256 L43.550,66.663 L42.740,67.477 L44.344,69.081 ZM41.649,66.393 L42.459,65.583 L40.847,63.998 L40.048,64.808 L41.649,66.393 ZM38.954,63.721 L39.748,62.911 L38.136,61.322 L37.349,62.116 L38.954,63.721 ZM31.707,52.827 C31.996,52.531 32.292,52.223 32.600,51.909 C32.850,51.650 33.102,51.387 33.346,51.136 C33.035,50.978 32.742,50.784 32.468,50.559 L30.950,52.081 L31.707,52.827 ZM38.511,36.704 L24.866,50.091 L27.977,52.887 L41.327,39.366 L38.511,36.704 ZM33.560,49.472 C34.136,49.906 34.845,50.150 35.580,50.150 C37.432,50.150 38.938,48.644 38.938,46.791 C38.938,46.054 38.695,45.345 38.260,44.768 L33.560,49.472 ZM39.351,43.680 C39.568,43.943 39.756,44.227 39.913,44.528 L41.323,43.081 L40.629,42.399 L39.351,43.680 ZM42.417,44.160 L40.435,46.192 C40.460,46.391 40.476,46.589 40.476,46.791 C40.476,49.491 38.279,51.684 35.580,51.684 C35.385,51.684 35.190,51.673 34.995,51.647 C34.598,52.052 34.155,52.508 33.701,52.976 C33.394,53.295 33.090,53.607 32.802,53.902 L50.924,71.776 L52.535,70.168 L50.796,68.432 L49.034,66.667 C48.734,66.368 48.734,65.884 49.034,65.583 C49.334,65.284 49.821,65.284 50.121,65.583 L51.062,66.525 L54.481,69.943 L56.085,68.334 L53.528,65.779 L52.588,64.834 C52.284,64.534 52.284,64.050 52.588,63.750 C52.887,63.450 53.371,63.450 53.671,63.750 L58.031,68.110 L59.636,66.501 L56.138,63.005 C55.838,62.705 55.838,62.217 56.138,61.917 C56.438,61.617 56.922,61.617 57.221,61.917 L58.165,62.858 C58.165,62.862 58.165,62.862 58.165,62.862 L61.266,65.959 L61.581,66.277 L63.185,64.669 L48.993,50.477 C41.694,57.873 37.488,54.690 37.312,54.548 C37.139,54.409 37.034,54.207 37.023,53.989 C37.009,53.768 37.090,53.554 37.248,53.401 L44.494,46.215 L42.417,44.160 ZM57.180,41.791 L52.767,46.406 C52.476,46.713 51.988,46.725 51.681,46.432 C51.377,46.139 51.365,45.652 51.658,45.345 L52.213,44.768 L48.527,44.374 L39.137,53.689 C40.558,54.019 43.715,53.865 48.423,48.854 C48.565,48.703 48.761,48.617 48.970,48.614 C49.195,48.610 49.379,48.693 49.525,48.838 L59.732,59.046 L66.867,51.478 L57.180,41.791 Z"/>
</svg>