<svg 
 xmlns="http://www.w3.org/2000/svg"
 xmlns:xlink="http://www.w3.org/1999/xlink"
 width="98px" height="98px">
<path fill-rule="evenodd"  fill="rgb(0, 0, 0)"
 d="M49.000,97.998 C22.066,97.998 0.231,76.164 0.231,49.231 C0.231,22.296 22.066,0.462 49.000,0.462 C75.934,0.462 97.769,22.296 97.769,49.231 C97.769,76.164 75.934,97.998 49.000,97.998 ZM49.000,1.763 C22.826,1.763 1.532,23.057 1.532,49.231 C1.532,75.405 22.826,96.698 49.000,96.698 C75.174,96.698 96.468,75.405 96.468,49.231 C96.468,23.057 75.174,1.763 49.000,1.763 ZM24.932,24.833 L31.218,24.833 L32.980,24.833 L40.035,24.833 L41.797,24.833 L49.156,24.833 L50.918,24.833 L58.003,24.833 L59.768,24.833 L66.118,24.833 L67.883,24.833 L73.068,24.833 L73.068,73.629 L24.932,73.629 L24.932,24.833 ZM26.668,36.689 L26.668,72.066 L71.645,72.066 L71.645,36.689 L71.645,26.307 L67.883,26.307 L66.118,26.307 L59.768,26.307 L58.003,26.307 L50.918,26.307 L49.151,26.307 L41.797,26.307 L40.035,26.307 L32.980,26.307 L31.214,26.307 L26.668,26.307 L26.668,36.689 ZM32.171,65.062 L64.832,32.402 L49.430,32.402 L49.430,30.990 L67.245,30.986 L67.245,48.805 L65.828,48.805 L65.828,33.403 L33.173,66.059 L48.575,66.064 L48.571,67.476 L30.755,67.476 L30.755,49.660 L32.171,49.660 L32.171,65.062 Z"/>
</svg>