<?xml version="1.0" encoding="utf-8"?>
<!-- Generator: Adobe Illustrator 22.1.0, SVG Export Plug-In . SVG Version: 6.00 Build 0)  -->
<svg version="1.1" id="Layer_1" xmlns="http://www.w3.org/2000/svg" xmlns:xlink="http://www.w3.org/1999/xlink" x="0px" y="0px"
	 viewBox="0 0 17.1 17" style="enable-background:new 0 0 17.1 17;" xml:space="preserve" width="19px" height="18px">
<style type="text/css">
	.st0{fill:none;stroke:#FFFFFF;stroke-width:2;}
	.st1{fill:#FFFFFF;stroke:#FFFFFF;stroke-width:2;}
</style>
<title>Asset 3</title>
<g id="Layer_1-2">
	<path class="st0" d="M8.5,1C12.7,1,16,4.4,16,8.5S12.6,16,8.5,16C4.3,16,1,12.6,1,8.5C1,4.4,4.4,1,8.5,1z"/>
	<path class="st1" d="M8.6,4.8c2.1,0,3.7,1.7,3.7,3.8c0,2.1-1.7,3.7-3.8,3.7c-2,0-3.7-1.7-3.7-3.7C4.8,6.5,6.4,4.8,8.6,4.8
		C8.5,4.8,8.5,4.7,8.6,4.8z"/>
</g>
</svg>
