<svg 
 xmlns="http://www.w3.org/2000/svg"
 xmlns:xlink="http://www.w3.org/1999/xlink"
 width="98px" height="98px">
<path fill-rule="evenodd"  fill="rgb(0, 0, 0)"
 d="M49.000,97.998 C22.066,97.998 0.231,76.164 0.231,49.231 C0.231,22.296 22.066,0.462 49.000,0.462 C75.934,0.462 97.769,22.296 97.769,49.231 C97.769,76.164 75.934,97.998 49.000,97.998 ZM49.000,1.763 C22.826,1.763 1.532,23.057 1.532,49.231 C1.532,75.405 22.826,96.698 49.000,96.698 C75.174,96.698 96.468,75.405 96.468,49.231 C96.468,23.057 75.174,1.763 49.000,1.763 ZM62.925,73.793 L31.182,62.780 L31.872,60.812 C32.088,60.834 32.304,60.865 32.515,60.889 L27.202,59.490 L27.521,58.300 L23.974,58.300 L23.974,24.668 L57.607,24.668 L57.607,32.778 L68.357,35.635 L67.266,39.744 L74.026,42.102 L62.925,73.793 ZM56.283,25.992 L25.348,25.992 L25.348,56.925 L56.283,56.925 L56.283,25.992 ZM56.777,58.300 L49.579,58.300 L57.029,60.288 C56.957,59.623 56.875,58.958 56.777,58.300 ZM57.607,34.163 L57.607,35.532 L65.303,37.586 L58.769,62.162 L44.245,58.300 L28.906,58.300 L28.839,58.537 L58.755,66.503 L66.715,36.582 L57.607,34.163 ZM57.607,36.912 L57.607,56.117 C57.858,57.100 57.977,58.161 58.106,59.226 L63.630,38.513 L57.607,36.912 ZM60.346,65.627 L60.865,65.808 C60.845,65.209 60.814,64.607 60.773,64.004 L60.346,65.627 ZM61.627,60.817 C61.864,62.049 61.967,63.448 62.034,64.855 L69.098,44.614 L66.231,43.616 L61.627,60.817 ZM66.920,41.036 L66.575,42.323 L70.834,43.806 L62.456,67.816 L59.984,66.956 L59.687,68.072 L33.195,61.065 L32.887,61.956 L62.117,72.155 L72.317,42.920 L66.920,41.036 ZM55.165,52.754 L26.362,52.754 L26.362,27.314 L55.165,27.314 L55.165,52.754 ZM53.018,51.380 C51.778,48.172 50.233,44.764 48.564,44.764 C48.451,44.764 48.338,44.779 48.224,44.805 C46.103,45.351 44.615,49.851 44.172,51.380 L53.018,51.380 ZM42.262,51.380 C41.593,48.837 39.883,43.225 36.614,39.954 C36.233,39.574 35.858,39.378 35.491,39.378 C33.071,39.378 30.270,47.056 29.035,51.380 L42.262,51.380 ZM53.791,28.637 L27.737,28.637 L27.737,51.380 L27.784,51.380 C28.849,47.565 31.847,38.169 35.491,38.169 C36.187,38.169 36.856,38.482 37.468,39.095 C40.306,41.937 42.036,46.169 42.983,49.223 L43.267,50.118 L43.586,49.243 C44.415,46.977 45.836,44.171 47.926,43.636 C48.137,43.580 48.359,43.554 48.564,43.554 C50.928,43.554 52.467,46.772 53.791,50.077 L53.791,28.637 ZM46.341,38.498 C44.491,38.498 42.989,36.989 42.989,35.141 C42.989,33.293 44.491,31.789 46.341,31.789 C48.189,31.789 49.693,33.293 49.693,35.141 C49.693,36.989 48.189,38.498 46.341,38.498 ZM46.341,32.694 C44.991,32.694 43.889,33.791 43.889,35.141 C43.889,36.489 44.991,37.591 46.341,37.591 C47.689,37.591 48.786,36.489 48.786,35.141 C48.786,33.791 47.689,32.694 46.341,32.694 Z"/>
</svg>